<svg id="mermaid-svg" width="100%" xmlns="http://www.w3.org/2000/svg" style="max-width: 829.5885620117188px;" viewBox="0 0 829.5885620117188 774" role="graphics-document document" aria-roledescription="er" xmlns:xlink="http://www.w3.org/1999/xlink"><style xmlns="http://www.w3.org/1999/xhtml">@import url("https://cdnjs.cloudflare.com/ajax/libs/font-awesome/6.6.0/css/all.min.css");</style><style>#mermaid-svg{font-family:"trebuchet ms",verdana,arial,sans-serif;font-size:16px;fill:#333;}#mermaid-svg .error-icon{fill:#552222;}#mermaid-svg .error-text{fill:#552222;stroke:#552222;}#mermaid-svg .edge-thickness-normal{stroke-width:1px;}#mermaid-svg .edge-thickness-thick{stroke-width:3.5px;}#mermaid-svg .edge-pattern-solid{stroke-dasharray:0;}#mermaid-svg .edge-thickness-invisible{stroke-width:0;fill:none;}#mermaid-svg .edge-pattern-dashed{stroke-dasharray:3;}#mermaid-svg .edge-pattern-dotted{stroke-dasharray:2;}#mermaid-svg .marker{fill:#333333;stroke:#333333;}#mermaid-svg .marker.cross{stroke:#333333;}#mermaid-svg svg{font-family:"trebuchet ms",verdana,arial,sans-serif;font-size:16px;}#mermaid-svg p{margin:0;}#mermaid-svg .entityBox{fill:#ECECFF;stroke:#9370DB;}#mermaid-svg .attributeBoxOdd{fill:#ffffff;stroke:#9370DB;}#mermaid-svg .attributeBoxEven{fill:#f2f2f2;stroke:#9370DB;}#mermaid-svg .relationshipLabelBox{fill:hsl(80, 100%, 96.2745098039%);opacity:0.7;background-color:hsl(80, 100%, 96.2745098039%);}#mermaid-svg .relationshipLabelBox rect{opacity:0.5;}#mermaid-svg .relationshipLine{stroke:#333333;}#mermaid-svg .entityTitleText{text-anchor:middle;font-size:18px;fill:#333;}#mermaid-svg #MD_PARENT_START{fill:#f5f5f5!important;stroke:#333333!important;stroke-width:1;}#mermaid-svg #MD_PARENT_END{fill:#f5f5f5!important;stroke:#333333!important;stroke-width:1;}#mermaid-svg :root{--mermaid-font-family:"trebuchet ms",verdana,arial,sans-serif;}</style><g/><defs><marker id="MD_PARENT_START" refX="0" refY="7" markerWidth="190" markerHeight="240" orient="auto"><path d="M 18,7 L9,13 L1,7 L9,1 Z"/></marker></defs><defs><marker id="MD_PARENT_END" refX="19" refY="7" markerWidth="20" markerHeight="28" orient="auto"><path d="M 18,7 L9,13 L1,7 L9,1 Z"/></marker></defs><defs><marker id="ONLY_ONE_START" refX="0" refY="9" markerWidth="18" markerHeight="18" orient="auto"><path stroke="gray" fill="none" d="M9,0 L9,18 M15,0 L15,18"/></marker></defs><defs><marker id="ONLY_ONE_END" refX="18" refY="9" markerWidth="18" markerHeight="18" orient="auto"><path stroke="gray" fill="none" d="M3,0 L3,18 M9,0 L9,18"/></marker></defs><defs><marker id="ZERO_OR_ONE_START" refX="0" refY="9" markerWidth="30" markerHeight="18" orient="auto"><circle stroke="gray" fill="white" cx="21" cy="9" r="6"/><path stroke="gray" fill="none" d="M9,0 L9,18"/></marker></defs><defs><marker id="ZERO_OR_ONE_END" refX="30" refY="9" markerWidth="30" markerHeight="18" orient="auto"><circle stroke="gray" fill="white" cx="9" cy="9" r="6"/><path stroke="gray" fill="none" d="M21,0 L21,18"/></marker></defs><defs><marker id="ONE_OR_MORE_START" refX="18" refY="18" markerWidth="45" markerHeight="36" orient="auto"><path stroke="gray" fill="none" d="M0,18 Q 18,0 36,18 Q 18,36 0,18 M42,9 L42,27"/></marker></defs><defs><marker id="ONE_OR_MORE_END" refX="27" refY="18" markerWidth="45" markerHeight="36" orient="auto"><path stroke="gray" fill="none" d="M3,9 L3,27 M9,18 Q27,0 45,18 Q27,36 9,18"/></marker></defs><defs><marker id="ZERO_OR_MORE_START" refX="18" refY="18" markerWidth="57" markerHeight="36" orient="auto"><circle stroke="gray" fill="white" cx="48" cy="18" r="6"/><path stroke="gray" fill="none" d="M0,18 Q18,0 36,18 Q18,36 0,18"/></marker></defs><defs><marker id="ZERO_OR_MORE_END" refX="39" refY="18" markerWidth="57" markerHeight="36" orient="auto"><circle stroke="gray" fill="white" cx="9" cy="18" r="6"/><path stroke="gray" fill="none" d="M21,18 Q39,0 57,18 Q39,36 21,18"/></marker></defs><path class="er relationshipLine" d="M132.732,204.117L124.707,215.097C116.681,226.078,100.629,248.039,92.604,271.019C84.578,294,84.578,318,84.578,330L84.578,342" marker-end="url(#ZERO_OR_MORE_END)" marker-start="url(#ONLY_ONE_START)" style="stroke: gray; fill: none;"/><path class="er relationshipLine" d="M255.694,204.117L263.72,215.097C271.745,226.078,287.797,248.039,295.822,267.353C303.848,286.667,303.848,303.333,303.848,311.667L303.848,320" marker-end="url(#ZERO_OR_MORE_END)" marker-start="url(#ONLY_ONE_START)" style="stroke: gray; fill: none;"/><path class="er relationshipLine" d="M271.834,498L268.836,506.333C265.839,514.667,259.843,531.333,256.846,551.667C253.848,572,253.848,596,253.848,608L253.848,620" marker-end="url(#ONE_OR_MORE_END)" marker-start="url(#ONLY_ONE_START)" style="stroke: gray; fill: none;"/><path class="er relationshipLine" d="M358.54,485.022L366.091,495.518C373.643,506.014,388.745,527.007,405.587,548.749C422.428,570.491,441.008,592.983,450.299,604.229L459.589,615.474" marker-end="url(#ONLY_ONE_END)" marker-start="url(#ONLY_ONE_START)" style="stroke: gray; fill: none;"/><path class="er relationshipLine" d="M559.589,154L559.589,173.333C559.589,192.667,559.589,231.333,559.589,266.333C559.589,301.333,559.589,332.667,559.589,348.333L559.589,364" marker-end="url(#ONE_OR_MORE_END)" marker-start="url(#ONLY_ONE_START)" style="stroke: gray; fill: none;"/><path class="er relationshipLine" d="M559.589,454L559.589,469.667C559.589,485.333,559.589,516.667,556.333,540.667C553.078,564.667,546.568,581.333,543.313,589.667L540.057,598" marker-end="url(#ONE_OR_MORE_END)" marker-start="url(#ONLY_ONE_START)" style="stroke: gray; fill: none;"/><g id="entity-User-818c511a-4a32-5484-ba70-875d765a9175" transform="translate(132.73219299316406,20 )"><rect class="er entityBox" x="0" y="0" width="122.96185302734375" height="200"/><text class="er entityLabel" id="text-entity-User-818c511a-4a32-5484-ba70-875d765a9175" x="0" y="0" transform="translate(61.480926513671875,12)" style="dominant-baseline: middle; text-anchor: middle; font-size: 12px;">User</text><rect class="er attributeBoxOdd" x="0" y="24" width="52.02435302734375" height="22"/><text class="er entityLabel" id="text-entity-User-818c511a-4a32-5484-ba70-875d765a9175-attr-1-type" x="0" y="0" transform="translate(5,35)" style="dominant-baseline: middle; font-size: 10.2px;">string</text><rect class="er attributeBoxOdd" x="52.02435302734375" y="24" width="70.9375" height="22"/><text class="er entityLabel" id="text-entity-User-818c511a-4a32-5484-ba70-875d765a9175-attr-1-name" x="0" y="0" transform="translate(57.02435302734375,35)" style="dominant-baseline: middle; font-size: 10.2px;">id</text><rect class="er attributeBoxEven" x="0" y="46" width="52.02435302734375" height="22"/><text class="er entityLabel" id="text-entity-User-818c511a-4a32-5484-ba70-875d765a9175-attr-2-type" x="0" y="0" transform="translate(5,57)" style="dominant-baseline: middle; font-size: 10.2px;">string</text><rect class="er attributeBoxEven" x="52.02435302734375" y="46" width="70.9375" height="22"/><text class="er entityLabel" id="text-entity-User-818c511a-4a32-5484-ba70-875d765a9175-attr-2-name" x="0" y="0" transform="translate(57.02435302734375,57)" style="dominant-baseline: middle; font-size: 10.2px;">name</text><rect class="er attributeBoxOdd" x="0" y="68" width="52.02435302734375" height="22"/><text class="er entityLabel" id="text-entity-User-818c511a-4a32-5484-ba70-875d765a9175-attr-3-type" x="0" y="0" transform="translate(5,79)" style="dominant-baseline: middle; font-size: 10.2px;">string</text><rect class="er attributeBoxOdd" x="52.02435302734375" y="68" width="70.9375" height="22"/><text class="er entityLabel" id="text-entity-User-818c511a-4a32-5484-ba70-875d765a9175-attr-3-name" x="0" y="0" transform="translate(57.02435302734375,79)" style="dominant-baseline: middle; font-size: 10.2px;">username</text><rect class="er attributeBoxEven" x="0" y="90" width="52.02435302734375" height="22"/><text class="er entityLabel" id="text-entity-User-818c511a-4a32-5484-ba70-875d765a9175-attr-4-type" x="0" y="0" transform="translate(5,101)" style="dominant-baseline: middle; font-size: 10.2px;">string</text><rect class="er attributeBoxEven" x="52.02435302734375" y="90" width="70.9375" height="22"/><text class="er entityLabel" id="text-entity-User-818c511a-4a32-5484-ba70-875d765a9175-attr-4-name" x="0" y="0" transform="translate(57.02435302734375,101)" style="dominant-baseline: middle; font-size: 10.2px;">password</text><rect class="er attributeBoxOdd" x="0" y="112" width="52.02435302734375" height="22"/><text class="er entityLabel" id="text-entity-User-818c511a-4a32-5484-ba70-875d765a9175-attr-5-type" x="0" y="0" transform="translate(5,123)" style="dominant-baseline: middle; font-size: 10.2px;">string</text><rect class="er attributeBoxOdd" x="52.02435302734375" y="112" width="70.9375" height="22"/><text class="er entityLabel" id="text-entity-User-818c511a-4a32-5484-ba70-875d765a9175-attr-5-name" x="0" y="0" transform="translate(57.02435302734375,123)" style="dominant-baseline: middle; font-size: 10.2px;">email</text><rect class="er attributeBoxEven" x="0" y="134" width="52.02435302734375" height="22"/><text class="er entityLabel" id="text-entity-User-818c511a-4a32-5484-ba70-875d765a9175-attr-6-type" x="0" y="0" transform="translate(5,145)" style="dominant-baseline: middle; font-size: 10.2px;">datetime</text><rect class="er attributeBoxEven" x="52.02435302734375" y="134" width="70.9375" height="22"/><text class="er entityLabel" id="text-entity-User-818c511a-4a32-5484-ba70-875d765a9175-attr-6-name" x="0" y="0" transform="translate(57.02435302734375,145)" style="dominant-baseline: middle; font-size: 10.2px;">emailVerified</text><rect class="er attributeBoxOdd" x="0" y="156" width="52.02435302734375" height="22"/><text class="er entityLabel" id="text-entity-User-818c511a-4a32-5484-ba70-875d765a9175-attr-7-type" x="0" y="0" transform="translate(5,167)" style="dominant-baseline: middle; font-size: 10.2px;">string</text><rect class="er attributeBoxOdd" x="52.02435302734375" y="156" width="70.9375" height="22"/><text class="er entityLabel" id="text-entity-User-818c511a-4a32-5484-ba70-875d765a9175-attr-7-name" x="0" y="0" transform="translate(57.02435302734375,167)" style="dominant-baseline: middle; font-size: 10.2px;">image</text><rect class="er attributeBoxEven" x="0" y="178" width="52.02435302734375" height="22"/><text class="er entityLabel" id="text-entity-User-818c511a-4a32-5484-ba70-875d765a9175-attr-8-type" x="0" y="0" transform="translate(5,189)" style="dominant-baseline: middle; font-size: 10.2px;">enum</text><rect class="er attributeBoxEven" x="52.02435302734375" y="178" width="70.9375" height="22"/><text class="er entityLabel" id="text-entity-User-818c511a-4a32-5484-ba70-875d765a9175-attr-8-name" x="0" y="0" transform="translate(57.02435302734375,189)" style="dominant-baseline: middle; font-size: 10.2px;">role</text></g><g id="entity-Account-3e57c4b6-cd9d-514f-a2f6-ac5478bb332e" transform="translate(20,342 )"><rect class="er entityBox" x="0" y="0" width="129.15625" height="134"/><text class="er entityLabel" id="text-entity-Account-3e57c4b6-cd9d-514f-a2f6-ac5478bb332e" x="0" y="0" transform="translate(64.578125,12)" style="dominant-baseline: middle; text-anchor: middle; font-size: 12px;">Account</text><rect class="er attributeBoxOdd" x="0" y="24" width="35.71875" height="22"/><text class="er entityLabel" id="text-entity-Account-3e57c4b6-cd9d-514f-a2f6-ac5478bb332e-attr-1-type" x="0" y="0" transform="translate(5,35)" style="dominant-baseline: middle; font-size: 10.2px;">string</text><rect class="er attributeBoxOdd" x="35.71875" y="24" width="93.4375" height="22"/><text class="er entityLabel" id="text-entity-Account-3e57c4b6-cd9d-514f-a2f6-ac5478bb332e-attr-1-name" x="0" y="0" transform="translate(40.71875,35)" style="dominant-baseline: middle; font-size: 10.2px;">id</text><rect class="er attributeBoxEven" x="0" y="46" width="35.71875" height="22"/><text class="er entityLabel" id="text-entity-Account-3e57c4b6-cd9d-514f-a2f6-ac5478bb332e-attr-2-type" x="0" y="0" transform="translate(5,57)" style="dominant-baseline: middle; font-size: 10.2px;">string</text><rect class="er attributeBoxEven" x="35.71875" y="46" width="93.4375" height="22"/><text class="er entityLabel" id="text-entity-Account-3e57c4b6-cd9d-514f-a2f6-ac5478bb332e-attr-2-name" x="0" y="0" transform="translate(40.71875,57)" style="dominant-baseline: middle; font-size: 10.2px;">userId</text><rect class="er attributeBoxOdd" x="0" y="68" width="35.71875" height="22"/><text class="er entityLabel" id="text-entity-Account-3e57c4b6-cd9d-514f-a2f6-ac5478bb332e-attr-3-type" x="0" y="0" transform="translate(5,79)" style="dominant-baseline: middle; font-size: 10.2px;">string</text><rect class="er attributeBoxOdd" x="35.71875" y="68" width="93.4375" height="22"/><text class="er entityLabel" id="text-entity-Account-3e57c4b6-cd9d-514f-a2f6-ac5478bb332e-attr-3-name" x="0" y="0" transform="translate(40.71875,79)" style="dominant-baseline: middle; font-size: 10.2px;">type</text><rect class="er attributeBoxEven" x="0" y="90" width="35.71875" height="22"/><text class="er entityLabel" id="text-entity-Account-3e57c4b6-cd9d-514f-a2f6-ac5478bb332e-attr-4-type" x="0" y="0" transform="translate(5,101)" style="dominant-baseline: middle; font-size: 10.2px;">string</text><rect class="er attributeBoxEven" x="35.71875" y="90" width="93.4375" height="22"/><text class="er entityLabel" id="text-entity-Account-3e57c4b6-cd9d-514f-a2f6-ac5478bb332e-attr-4-name" x="0" y="0" transform="translate(40.71875,101)" style="dominant-baseline: middle; font-size: 10.2px;">provider</text><rect class="er attributeBoxOdd" x="0" y="112" width="35.71875" height="22"/><text class="er entityLabel" id="text-entity-Account-3e57c4b6-cd9d-514f-a2f6-ac5478bb332e-attr-5-type" x="0" y="0" transform="translate(5,123)" style="dominant-baseline: middle; font-size: 10.2px;">string</text><rect class="er attributeBoxOdd" x="35.71875" y="112" width="93.4375" height="22"/><text class="er entityLabel" id="text-entity-Account-3e57c4b6-cd9d-514f-a2f6-ac5478bb332e-attr-5-name" x="0" y="0" transform="translate(40.71875,123)" style="dominant-baseline: middle; font-size: 10.2px;">providerAccountId</text></g><g id="entity-Booking-794ee50b-c6f0-55d6-a188-7dccf3366d85" transform="translate(249.15625,320 )"><rect class="er entityBox" x="0" y="0" width="109.38372802734375" height="178"/><text class="er entityLabel" id="text-entity-Booking-794ee50b-c6f0-55d6-a188-7dccf3366d85" x="0" y="0" transform="translate(54.691864013671875,12)" style="dominant-baseline: middle; text-anchor: middle; font-size: 12px;">Booking</text><rect class="er attributeBoxOdd" x="0" y="24" width="52.02435302734375" height="22"/><text class="er entityLabel" id="text-entity-Booking-794ee50b-c6f0-55d6-a188-7dccf3366d85-attr-1-type" x="0" y="0" transform="translate(5,35)" style="dominant-baseline: middle; font-size: 10.2px;">string</text><rect class="er attributeBoxOdd" x="52.02435302734375" y="24" width="57.359375" height="22"/><text class="er entityLabel" id="text-entity-Booking-794ee50b-c6f0-55d6-a188-7dccf3366d85-attr-1-name" x="0" y="0" transform="translate(57.02435302734375,35)" style="dominant-baseline: middle; font-size: 10.2px;">id</text><rect class="er attributeBoxEven" x="0" y="46" width="52.02435302734375" height="22"/><text class="er entityLabel" id="text-entity-Booking-794ee50b-c6f0-55d6-a188-7dccf3366d85-attr-2-type" x="0" y="0" transform="translate(5,57)" style="dominant-baseline: middle; font-size: 10.2px;">string</text><rect class="er attributeBoxEven" x="52.02435302734375" y="46" width="57.359375" height="22"/><text class="er entityLabel" id="text-entity-Booking-794ee50b-c6f0-55d6-a188-7dccf3366d85-attr-2-name" x="0" y="0" transform="translate(57.02435302734375,57)" style="dominant-baseline: middle; font-size: 10.2px;">userId</text><rect class="er attributeBoxOdd" x="0" y="68" width="52.02435302734375" height="22"/><text class="er entityLabel" id="text-entity-Booking-794ee50b-c6f0-55d6-a188-7dccf3366d85-attr-3-type" x="0" y="0" transform="translate(5,79)" style="dominant-baseline: middle; font-size: 10.2px;">datetime</text><rect class="er attributeBoxOdd" x="52.02435302734375" y="68" width="57.359375" height="22"/><text class="er entityLabel" id="text-entity-Booking-794ee50b-c6f0-55d6-a188-7dccf3366d85-attr-3-name" x="0" y="0" transform="translate(57.02435302734375,79)" style="dominant-baseline: middle; font-size: 10.2px;">startDate</text><rect class="er attributeBoxEven" x="0" y="90" width="52.02435302734375" height="22"/><text class="er entityLabel" id="text-entity-Booking-794ee50b-c6f0-55d6-a188-7dccf3366d85-attr-4-type" x="0" y="0" transform="translate(5,101)" style="dominant-baseline: middle; font-size: 10.2px;">datetime</text><rect class="er attributeBoxEven" x="52.02435302734375" y="90" width="57.359375" height="22"/><text class="er entityLabel" id="text-entity-Booking-794ee50b-c6f0-55d6-a188-7dccf3366d85-attr-4-name" x="0" y="0" transform="translate(57.02435302734375,101)" style="dominant-baseline: middle; font-size: 10.2px;">endDate</text><rect class="er attributeBoxOdd" x="0" y="112" width="52.02435302734375" height="22"/><text class="er entityLabel" id="text-entity-Booking-794ee50b-c6f0-55d6-a188-7dccf3366d85-attr-5-type" x="0" y="0" transform="translate(5,123)" style="dominant-baseline: middle; font-size: 10.2px;">int</text><rect class="er attributeBoxOdd" x="52.02435302734375" y="112" width="57.359375" height="22"/><text class="er entityLabel" id="text-entity-Booking-794ee50b-c6f0-55d6-a188-7dccf3366d85-attr-5-name" x="0" y="0" transform="translate(57.02435302734375,123)" style="dominant-baseline: middle; font-size: 10.2px;">dateCount</text><rect class="er attributeBoxEven" x="0" y="134" width="52.02435302734375" height="22"/><text class="er entityLabel" id="text-entity-Booking-794ee50b-c6f0-55d6-a188-7dccf3366d85-attr-6-type" x="0" y="0" transform="translate(5,145)" style="dominant-baseline: middle; font-size: 10.2px;">string</text><rect class="er attributeBoxEven" x="52.02435302734375" y="134" width="57.359375" height="22"/><text class="er entityLabel" id="text-entity-Booking-794ee50b-c6f0-55d6-a188-7dccf3366d85-attr-6-name" x="0" y="0" transform="translate(57.02435302734375,145)" style="dominant-baseline: middle; font-size: 10.2px;">purpose</text><rect class="er attributeBoxOdd" x="0" y="156" width="52.02435302734375" height="22"/><text class="er entityLabel" id="text-entity-Booking-794ee50b-c6f0-55d6-a188-7dccf3366d85-attr-7-type" x="0" y="0" transform="translate(5,167)" style="dominant-baseline: middle; font-size: 10.2px;">string</text><rect class="er attributeBoxOdd" x="52.02435302734375" y="156" width="57.359375" height="22"/><text class="er entityLabel" id="text-entity-Booking-794ee50b-c6f0-55d6-a188-7dccf3366d85-attr-7-name" x="0" y="0" transform="translate(57.02435302734375,167)" style="dominant-baseline: middle; font-size: 10.2px;">roomId</text></g><g id="entity-BookingLog-d953a421-f77b-52c1-8bb7-84bce0bdb2c5" transform="translate(203.84811401367188,620 )"><rect class="er entityBox" x="0" y="0" width="100" height="112"/><text class="er entityLabel" id="text-entity-BookingLog-d953a421-f77b-52c1-8bb7-84bce0bdb2c5" x="0" y="0" transform="translate(50,12)" style="dominant-baseline: middle; text-anchor: middle; font-size: 12px;">BookingLog</text><rect class="er attributeBoxOdd" x="0" y="24" width="37.3984375" height="22"/><text class="er entityLabel" id="text-entity-BookingLog-d953a421-f77b-52c1-8bb7-84bce0bdb2c5-attr-1-type" x="0" y="0" transform="translate(5,35)" style="dominant-baseline: middle; font-size: 10.2px;">string</text><rect class="er attributeBoxOdd" x="37.3984375" y="24" width="62.6015625" height="22"/><text class="er entityLabel" id="text-entity-BookingLog-d953a421-f77b-52c1-8bb7-84bce0bdb2c5-attr-1-name" x="0" y="0" transform="translate(42.3984375,35)" style="dominant-baseline: middle; font-size: 10.2px;">id</text><rect class="er attributeBoxEven" x="0" y="46" width="37.3984375" height="22"/><text class="er entityLabel" id="text-entity-BookingLog-d953a421-f77b-52c1-8bb7-84bce0bdb2c5-attr-2-type" x="0" y="0" transform="translate(5,57)" style="dominant-baseline: middle; font-size: 10.2px;">string</text><rect class="er attributeBoxEven" x="37.3984375" y="46" width="62.6015625" height="22"/><text class="er entityLabel" id="text-entity-BookingLog-d953a421-f77b-52c1-8bb7-84bce0bdb2c5-attr-2-name" x="0" y="0" transform="translate(42.3984375,57)" style="dominant-baseline: middle; font-size: 10.2px;">bookingId</text><rect class="er attributeBoxOdd" x="0" y="68" width="37.3984375" height="22"/><text class="er entityLabel" id="text-entity-BookingLog-d953a421-f77b-52c1-8bb7-84bce0bdb2c5-attr-3-type" x="0" y="0" transform="translate(5,79)" style="dominant-baseline: middle; font-size: 10.2px;">enum</text><rect class="er attributeBoxOdd" x="37.3984375" y="68" width="62.6015625" height="22"/><text class="er entityLabel" id="text-entity-BookingLog-d953a421-f77b-52c1-8bb7-84bce0bdb2c5-attr-3-name" x="0" y="0" transform="translate(42.3984375,79)" style="dominant-baseline: middle; font-size: 10.2px;">status</text><rect class="er attributeBoxEven" x="0" y="90" width="37.3984375" height="22"/><text class="er entityLabel" id="text-entity-BookingLog-d953a421-f77b-52c1-8bb7-84bce0bdb2c5-attr-4-type" x="0" y="0" transform="translate(5,101)" style="dominant-baseline: middle; font-size: 10.2px;">string</text><rect class="er attributeBoxEven" x="37.3984375" y="90" width="62.6015625" height="22"/><text class="er entityLabel" id="text-entity-BookingLog-d953a421-f77b-52c1-8bb7-84bce0bdb2c5-attr-4-name" x="0" y="0" transform="translate(42.3984375,101)" style="dominant-baseline: middle; font-size: 10.2px;">description</text></g><g id="entity-Room-84e0ae07-3c50-5f6f-b167-b8f307304849" transform="translate(459.5885772705078,598 )"><rect class="er entityBox" x="0" y="0" width="100" height="156"/><text class="er entityLabel" id="text-entity-Room-84e0ae07-3c50-5f6f-b167-b8f307304849" x="0" y="0" transform="translate(50,12)" style="dominant-baseline: middle; text-anchor: middle; font-size: 12px;">Room</text><rect class="er attributeBoxOdd" x="0" y="24" width="39.0859375" height="22"/><text class="er entityLabel" id="text-entity-Room-84e0ae07-3c50-5f6f-b167-b8f307304849-attr-1-type" x="0" y="0" transform="translate(5,35)" style="dominant-baseline: middle; font-size: 10.2px;">string</text><rect class="er attributeBoxOdd" x="39.0859375" y="24" width="60.9140625" height="22"/><text class="er entityLabel" id="text-entity-Room-84e0ae07-3c50-5f6f-b167-b8f307304849-attr-1-name" x="0" y="0" transform="translate(44.0859375,35)" style="dominant-baseline: middle; font-size: 10.2px;">id</text><rect class="er attributeBoxEven" x="0" y="46" width="39.0859375" height="22"/><text class="er entityLabel" id="text-entity-Room-84e0ae07-3c50-5f6f-b167-b8f307304849-attr-2-type" x="0" y="0" transform="translate(5,57)" style="dominant-baseline: middle; font-size: 10.2px;">string</text><rect class="er attributeBoxEven" x="39.0859375" y="46" width="60.9140625" height="22"/><text class="er entityLabel" id="text-entity-Room-84e0ae07-3c50-5f6f-b167-b8f307304849-attr-2-name" x="0" y="0" transform="translate(44.0859375,57)" style="dominant-baseline: middle; font-size: 10.2px;">name</text><rect class="er attributeBoxOdd" x="0" y="68" width="39.0859375" height="22"/><text class="er entityLabel" id="text-entity-Room-84e0ae07-3c50-5f6f-b167-b8f307304849-attr-3-type" x="0" y="0" transform="translate(5,79)" style="dominant-baseline: middle; font-size: 10.2px;">int</text><rect class="er attributeBoxOdd" x="39.0859375" y="68" width="60.9140625" height="22"/><text class="er entityLabel" id="text-entity-Room-84e0ae07-3c50-5f6f-b167-b8f307304849-attr-3-name" x="0" y="0" transform="translate(44.0859375,79)" style="dominant-baseline: middle; font-size: 10.2px;">capacity</text><rect class="er attributeBoxEven" x="0" y="90" width="39.0859375" height="22"/><text class="er entityLabel" id="text-entity-Room-84e0ae07-3c50-5f6f-b167-b8f307304849-attr-4-type" x="0" y="0" transform="translate(5,101)" style="dominant-baseline: middle; font-size: 10.2px;">string</text><rect class="er attributeBoxEven" x="39.0859375" y="90" width="60.9140625" height="22"/><text class="er entityLabel" id="text-entity-Room-84e0ae07-3c50-5f6f-b167-b8f307304849-attr-4-name" x="0" y="0" transform="translate(44.0859375,101)" style="dominant-baseline: middle; font-size: 10.2px;">facilities</text><rect class="er attributeBoxOdd" x="0" y="112" width="39.0859375" height="22"/><text class="er entityLabel" id="text-entity-Room-84e0ae07-3c50-5f6f-b167-b8f307304849-attr-5-type" x="0" y="0" transform="translate(5,123)" style="dominant-baseline: middle; font-size: 10.2px;">string</text><rect class="er attributeBoxOdd" x="39.0859375" y="112" width="60.9140625" height="22"/><text class="er entityLabel" id="text-entity-Room-84e0ae07-3c50-5f6f-b167-b8f307304849-attr-5-name" x="0" y="0" transform="translate(44.0859375,123)" style="dominant-baseline: middle; font-size: 10.2px;">imagePath</text><rect class="er attributeBoxEven" x="0" y="134" width="39.0859375" height="22"/><text class="er entityLabel" id="text-entity-Room-84e0ae07-3c50-5f6f-b167-b8f307304849-attr-6-type" x="0" y="0" transform="translate(5,145)" style="dominant-baseline: middle; font-size: 10.2px;">string</text><rect class="er attributeBoxEven" x="39.0859375" y="134" width="60.9140625" height="22"/><text class="er entityLabel" id="text-entity-Room-84e0ae07-3c50-5f6f-b167-b8f307304849-attr-6-name" x="0" y="0" transform="translate(44.0859375,145)" style="dominant-baseline: middle; font-size: 10.2px;">floorId</text></g><g id="entity-Building-5ea779ec-4f64-5785-a467-9843564f4ea7" transform="translate(509.5885772705078,86 )"><rect class="er entityBox" x="0" y="0" width="100" height="68"/><text class="er entityLabel" id="text-entity-Building-5ea779ec-4f64-5785-a467-9843564f4ea7" x="0" y="0" transform="translate(50,12)" style="dominant-baseline: middle; text-anchor: middle; font-size: 12px;">Building</text><rect class="er attributeBoxOdd" x="0" y="24" width="50.17179870605469" height="22"/><text class="er entityLabel" id="text-entity-Building-5ea779ec-4f64-5785-a467-9843564f4ea7-attr-1-type" x="0" y="0" transform="translate(5,35)" style="dominant-baseline: middle; font-size: 10.2px;">string</text><rect class="er attributeBoxOdd" x="50.17179870605469" y="24" width="49.82820129394531" height="22"/><text class="er entityLabel" id="text-entity-Building-5ea779ec-4f64-5785-a467-9843564f4ea7-attr-1-name" x="0" y="0" transform="translate(55.17179870605469,35)" style="dominant-baseline: middle; font-size: 10.2px;">id</text><rect class="er attributeBoxEven" x="0" y="46" width="50.17179870605469" height="22"/><text class="er entityLabel" id="text-entity-Building-5ea779ec-4f64-5785-a467-9843564f4ea7-attr-2-type" x="0" y="0" transform="translate(5,57)" style="dominant-baseline: middle; font-size: 10.2px;">string</text><rect class="er attributeBoxEven" x="50.17179870605469" y="46" width="49.82820129394531" height="22"/><text class="er entityLabel" id="text-entity-Building-5ea779ec-4f64-5785-a467-9843564f4ea7-attr-2-name" x="0" y="0" transform="translate(55.17179870605469,57)" style="dominant-baseline: middle; font-size: 10.2px;">name</text></g><g id="entity-Floor-ce5c3343-17c3-55df-a947-49c7de53d476" transform="translate(509.5885772705078,364 )"><rect class="er entityBox" x="0" y="0" width="100" height="90"/><text class="er entityLabel" id="text-entity-Floor-ce5c3343-17c3-55df-a947-49c7de53d476" x="0" y="0" transform="translate(50,12)" style="dominant-baseline: middle; text-anchor: middle; font-size: 12px;">Floor</text><rect class="er attributeBoxOdd" x="0" y="24" width="40.390625" height="22"/><text class="er entityLabel" id="text-entity-Floor-ce5c3343-17c3-55df-a947-49c7de53d476-attr-1-type" x="0" y="0" transform="translate(5,35)" style="dominant-baseline: middle; font-size: 10.2px;">string</text><rect class="er attributeBoxOdd" x="40.390625" y="24" width="59.609375" height="22"/><text class="er entityLabel" id="text-entity-Floor-ce5c3343-17c3-55df-a947-49c7de53d476-attr-1-name" x="0" y="0" transform="translate(45.390625,35)" style="dominant-baseline: middle; font-size: 10.2px;">id</text><rect class="er attributeBoxEven" x="0" y="46" width="40.390625" height="22"/><text class="er entityLabel" id="text-entity-Floor-ce5c3343-17c3-55df-a947-49c7de53d476-attr-2-type" x="0" y="0" transform="translate(5,57)" style="dominant-baseline: middle; font-size: 10.2px;">string</text><rect class="er attributeBoxEven" x="40.390625" y="46" width="59.609375" height="22"/><text class="er entityLabel" id="text-entity-Floor-ce5c3343-17c3-55df-a947-49c7de53d476-attr-2-name" x="0" y="0" transform="translate(45.390625,57)" style="dominant-baseline: middle; font-size: 10.2px;">name</text><rect class="er attributeBoxOdd" x="0" y="68" width="40.390625" height="22"/><text class="er entityLabel" id="text-entity-Floor-ce5c3343-17c3-55df-a947-49c7de53d476-attr-3-type" x="0" y="0" transform="translate(5,79)" style="dominant-baseline: middle; font-size: 10.2px;">string</text><rect class="er attributeBoxOdd" x="40.390625" y="68" width="59.609375" height="22"/><text class="er entityLabel" id="text-entity-Floor-ce5c3343-17c3-55df-a947-49c7de53d476-attr-3-name" x="0" y="0" transform="translate(45.390625,79)" style="dominant-baseline: middle; font-size: 10.2px;">buildingId</text></g><g id="entity-SiteSetting-d453eaeb-3c43-552e-93ad-3aa401cbea62" transform="translate(709.5885772705078,75 )"><rect class="er entityBox" x="0" y="0" width="100" height="90"/><text class="er entityLabel" id="text-entity-SiteSetting-d453eaeb-3c43-552e-93ad-3aa401cbea62" x="0" y="0" transform="translate(50,12)" style="dominant-baseline: middle; text-anchor: middle; font-size: 12px;">SiteSetting</text><rect class="er attributeBoxOdd" x="0" y="24" width="50.17179870605469" height="22"/><text class="er entityLabel" id="text-entity-SiteSetting-d453eaeb-3c43-552e-93ad-3aa401cbea62-attr-1-type" x="0" y="0" transform="translate(5,35)" style="dominant-baseline: middle; font-size: 10.2px;">string</text><rect class="er attributeBoxOdd" x="50.17179870605469" y="24" width="49.82820129394531" height="22"/><text class="er entityLabel" id="text-entity-SiteSetting-d453eaeb-3c43-552e-93ad-3aa401cbea62-attr-1-name" x="0" y="0" transform="translate(55.17179870605469,35)" style="dominant-baseline: middle; font-size: 10.2px;">id</text><rect class="er attributeBoxEven" x="0" y="46" width="50.17179870605469" height="22"/><text class="er entityLabel" id="text-entity-SiteSetting-d453eaeb-3c43-552e-93ad-3aa401cbea62-attr-2-type" x="0" y="0" transform="translate(5,57)" style="dominant-baseline: middle; font-size: 10.2px;">string</text><rect class="er attributeBoxEven" x="50.17179870605469" y="46" width="49.82820129394531" height="22"/><text class="er entityLabel" id="text-entity-SiteSetting-d453eaeb-3c43-552e-93ad-3aa401cbea62-attr-2-name" x="0" y="0" transform="translate(55.17179870605469,57)" style="dominant-baseline: middle; font-size: 10.2px;">name</text><rect class="er attributeBoxOdd" x="0" y="68" width="50.17179870605469" height="22"/><text class="er entityLabel" id="text-entity-SiteSetting-d453eaeb-3c43-552e-93ad-3aa401cbea62-attr-3-type" x="0" y="0" transform="translate(5,79)" style="dominant-baseline: middle; font-size: 10.2px;">string</text><rect class="er attributeBoxOdd" x="50.17179870605469" y="68" width="49.82820129394531" height="22"/><text class="er entityLabel" id="text-entity-SiteSetting-d453eaeb-3c43-552e-93ad-3aa401cbea62-attr-3-name" x="0" y="0" transform="translate(55.17179870605469,79)" style="dominant-baseline: middle; font-size: 10.2px;">logo</text></g><rect class="er relationshipLabelBox" x="84.78776550292969" y="260.9672546386719" width="17.861328125" height="14"/><text class="er relationshipLabel" id="rel1" x="93.71842956542969" y="267.9672546386719" style="text-anchor: middle; dominant-baseline: middle; font-size: 12px;">has</text><rect class="er relationshipLabelBox" x="274.3558044433594" y="250.67892456054688" width="33.86328125" height="14"/><text class="er relationshipLabel" id="rel2" x="291.2874450683594" y="257.6789245605469" style="text-anchor: middle; dominant-baseline: middle; font-size: 12px;">makes</text><rect class="er relationshipLabelBox" x="247.09561157226562" y="550.9284057617188" width="17.861328125" height="14"/><text class="er relationshipLabel" id="rel3" x="256.0262756347656" y="557.9284057617188" style="text-anchor: middle; dominant-baseline: middle; font-size: 12px;">has</text><rect class="er relationshipLabelBox" x="385.2711181640625" y="544.365478515625" width="44.697265625" height="14"/><text class="er relationshipLabel" id="rel4" x="407.6197509765625" y="551.365478515625" style="text-anchor: middle; dominant-baseline: middle; font-size: 12px;">reserves</text><rect class="er relationshipLabelBox" x="537.0997314453125" y="252" width="44.978515625" height="14"/><text class="er relationshipLabel" id="rel5" x="559.5889892578125" y="259" style="text-anchor: middle; dominant-baseline: middle; font-size: 12px;">contains</text><rect class="er relationshipLabelBox" x="548.8531494140625" y="520.23974609375" width="17.861328125" height="14"/><text class="er relationshipLabel" id="rel6" x="557.7838134765625" y="527.23974609375" style="text-anchor: middle; dominant-baseline: middle; font-size: 12px;">has</text></svg>